<svg width="747" height="108" fill="none" xmlns="http://www.w3.org/2000/svg"><mask id="a" maskUnits="userSpaceOnUse" x="122" y="0" width="625" height="108" fill="#000"><path fill="#fff" d="M122 0h625v108H122z"/><path d="M166 6a42 42 0 0130 13c9 9 14 21 14 35s-5 26-14 35a42 42 0 01-30 13h-40V6h40zm0 85c9 0 18-3 24-11 6-7 9-16 9-26s-3-19-9-26c-6-8-15-11-24-11h-29v74h29zM281 90c-6 8-15 13-26 13-10 0-19-4-25-11-7-7-10-16-10-26 0-11 3-20 10-27 6-7 15-10 26-10 10 0 19 4 25 12V30h10v72h-10V90zm-25 3c8 0 14-3 19-8 4-5 6-12 6-19 0-8-2-15-6-20-5-5-11-8-19-8-7 0-14 3-18 8-5 5-7 12-7 20 0 7 2 14 7 19 4 5 11 8 18 8zM318 102V39h-15v-9h15V4h10v26h17v9h-17v63h-10zM411 90c-6 8-14 13-26 13-10 0-18-4-25-11-6-7-9-16-9-26 0-11 3-20 9-27 7-7 15-10 26-10s19 4 25 12V30h11v72h-11V90zm-24 3c8 0 14-3 18-8 5-5 7-12 7-19 0-8-2-15-7-20-4-5-10-8-18-8s-14 3-19 8c-4 5-6 12-6 20 0 7 2 14 6 19 5 5 11 8 19 8zM483 49c-1-7-7-11-18-11s-17 3-17 10c0 3 1 5 3 7l9 3 12 3 11 3c4 2 7 4 9 7 3 2 4 6 4 10 0 7-3 13-8 16-5 4-12 6-21 6-10 0-18-3-23-7-5-5-8-10-9-17h12c0 7 4 11 11 13l7 2 7-1 6-1c5-2 7-5 7-10 0-3-1-5-4-7-2-1-5-3-8-3l-12-3-11-4c-4-1-7-3-9-6-3-2-4-5-4-10 0-6 3-11 7-15 5-4 12-5 21-5s16 2 21 6c4 3 7 8 7 14h-10zM542 93c9 0 16-4 20-12h12c-2 6-6 12-12 16-5 4-12 6-21 6-10 0-19-4-26-11s-10-16-10-26c0-11 3-20 10-27 6-7 15-10 26-10 10 0 19 3 26 10 6 7 9 16 9 27v4h-60c1 7 4 12 8 16 5 5 10 7 18 7zm-1-55a24 24 0 00-25 22h49c-1-6-3-12-8-15-4-5-10-7-16-7zM708 93c10 0 17-4 21-12h12c-3 6-7 12-12 16s-12 6-21 6c-11 0-19-4-26-11s-10-16-10-26c0-11 3-20 9-27 7-7 16-10 26-10 11 0 20 3 27 10 6 7 9 16 9 27v4h-60c1 7 3 12 8 16 4 5 10 7 17 7zm-1-55a24 24 0 00-24 22h49c-1-6-4-12-8-15-4-5-10-7-17-7zM601 104V42h-15V32h15V6h10v26h11v10h-11v62h-10zM636 104V42h-14V32h14V6h11v26h16v10h-16v62h-11z"/></mask><path d="M166 6a42 42 0 0130 13c9 9 14 21 14 35s-5 26-14 35a42 42 0 01-30 13h-40V6h40zm0 85c9 0 18-3 24-11 6-7 9-16 9-26s-3-19-9-26c-6-8-15-11-24-11h-29v74h29zM281 90c-6 8-15 13-26 13-10 0-19-4-25-11-7-7-10-16-10-26 0-11 3-20 10-27 6-7 15-10 26-10 10 0 19 4 25 12V30h10v72h-10V90zm-25 3c8 0 14-3 19-8 4-5 6-12 6-19 0-8-2-15-6-20-5-5-11-8-19-8-7 0-14 3-18 8-5 5-7 12-7 20 0 7 2 14 7 19 4 5 11 8 18 8zM318 102V39h-15v-9h15V4h10v26h17v9h-17v63h-10zM411 90c-6 8-14 13-26 13-10 0-18-4-25-11-6-7-9-16-9-26 0-11 3-20 9-27 7-7 15-10 26-10s19 4 25 12V30h11v72h-11V90zm-24 3c8 0 14-3 18-8 5-5 7-12 7-19 0-8-2-15-7-20-4-5-10-8-18-8s-14 3-19 8c-4 5-6 12-6 20 0 7 2 14 6 19 5 5 11 8 19 8zM483 49c-1-7-7-11-18-11s-17 3-17 10c0 3 1 5 3 7l9 3 12 3 11 3c4 2 7 4 9 7 3 2 4 6 4 10 0 7-3 13-8 16-5 4-12 6-21 6-10 0-18-3-23-7-5-5-8-10-9-17h12c0 7 4 11 11 13l7 2 7-1 6-1c5-2 7-5 7-10 0-3-1-5-4-7-2-1-5-3-8-3l-12-3-11-4c-4-1-7-3-9-6-3-2-4-5-4-10 0-6 3-11 7-15 5-4 12-5 21-5s16 2 21 6c4 3 7 8 7 14h-10zM542 93c9 0 16-4 20-12h12c-2 6-6 12-12 16-5 4-12 6-21 6-10 0-19-4-26-11s-10-16-10-26c0-11 3-20 10-27 6-7 15-10 26-10 10 0 19 3 26 10 6 7 9 16 9 27v4h-60c1 7 4 12 8 16 5 5 10 7 18 7zm-1-55a24 24 0 00-25 22h49c-1-6-3-12-8-15-4-5-10-7-16-7zM708 93c10 0 17-4 21-12h12c-3 6-7 12-12 16s-12 6-21 6c-11 0-19-4-26-11s-10-16-10-26c0-11 3-20 9-27 7-7 16-10 26-10 11 0 20 3 27 10 6 7 9 16 9 27v4h-60c1 7 3 12 8 16 4 5 10 7 17 7zm-1-55a24 24 0 00-24 22h49c-1-6-4-12-8-15-4-5-10-7-17-7zM601 104V42h-15V32h15V6h10v26h11v10h-11v62h-10zM636 104V42h-14V32h14V6h11v26h16v10h-16v62h-11z" fill="#0E0C82" fill-opacity=".3"/><path d="M624 32a2 2 0 00-4 0h4zm-4 10a2 2 0 104 0h-4zm0-10v5h4v-5h-4zm0 5v5h4v-5h-4zM182 10l-1 3 1-3zm14 9l-3 3 3-3zm0 70l-3-3 3 3zm-14 9l2 4-2-4zm-56 4h-4v4h4v-4zm0-96V2h-4v4h4zm64 74l-3-2 3 2zm0-52l-3 2 3-2zm-53-11v-4h-4v4h4zm0 74h-4v4h4v-4zm144-1h4V77l-8 11 4 2zm-51 2l-3 3 3-3zm0-53l-3-2 3 2zm51 2l-4 3 8 10V41h-4zm0-11v-4h-4v4h4zm10 0h4v-4h-4v4zm0 72v4h4v-4h-4zm-10 0h-4v4h4v-4zm-6-17l-3-3 3 3zm0-39l-3 3 3-3zm-37 0l-3-2 3 2zm0 39l-3 3 3-3zm80 17h-4v4h4v-4zm0-63h4v-4h-4v4zm-15 0h-4v4h4v-4zm0-9v-4h-4v4h4zm15 0v4h4v-4h-4zm0-26V0h-4v4h4zm10 0h4V0h-4v4zm0 26h-4v4h4v-4zm17 0h4v-4h-4v4zm0 9v4h4v-4h-4zm-17 0v-4h-4v4h4zm0 63v4h4v-4h-4zm83-12h4V77l-7 11 3 2zm-51 2l-3 3 3-3zm0-53l-3-2 3 2zm51 2l-3 3 7 10V41h-4zm0-11v-4h-4v4h4zm11 0h4v-4h-4v4zm0 72v4h4v-4h-4zm-11 0h-4v4h4v-4zm-6-17l-3-3 3 3zm0-39l-3 3 3-3zm-37 0l-3-2 3 2zm0 39l-3 3 3-3zm115-36h-4v4h4v-4zm-32 6l-2 3 2-3zm9 3l1-4-1 4zm12 3l-1 4 1-4zm11 3l-1 4 1-4zm9 7l-3 2 3-2zm-4 26l2 4-2-4zm-44-1l2-4-2 4zm-9-17v-4h-4v4h4zm12 0h4l-1-4h-3v4zm11 13l-1 4 1-4zm14 1l1 4-1-4zm6-1l2 3-2-3zm3-17l-2 4 2-4zm-8-3l-1 3 1-3zm-12-3l-1 4 1-4zm-11-4l-2 4 2-4zm-9-6l-3 3 3-3zm3-25l3 3-3-3zm42 1l3-3-3 3zm7 14v4h5l-1-4h-4zm69 32v-4h-2l-1 2 3 2zm12 0l4 1 2-5h-6v4zm-12 16l-2-4 2 4zm-47-5l-3 3 3-3zm0-53l-3-2 3 2zm52 0l3-2-3 2zm9 31v4h4v-4h-4zm-60 0v-4h-4v4h4zm8 16l3-3-3 3zm0-41l-3-3 3 3zm-8 15l-4-1v5h4v-4zm49 0v4h5l-1-5-4 1zm-8-15l3-3-3 3zm172 36v-4h-2l-1 2 3 2zm12 0l4 1 2-5h-6v4zm-12 16l-2-4 2 4zm-47-5l-3 3 3-3zm-1-53l-3-2 3 2zm53 0l2-2-2 2zm9 31v4h4v-4h-4zm-60 0v-4h-5l1 4h4zm8 16l3-3-3 3zm0-41l-3-3 3 3zm-8 15l-4-1-1 5h5v-4zm49 0v4h4v-5l-4 1zm-8-15l3-3-3 3zm-123 59h-4v4h4v-4zm0-62h4v-4h-4v4zm-15 0h-4v4h4v-4zm0-10v-4h-4v4h4zm15 0v4h4v-4h-4zm0-26V2h-4v4h4zm10 0h4V2h-4v4zm0 26h-4v4h4v-4zm0 10v-4h-4v4h4zm0 62v4h4v-4h-4zm25 0h-4v4h4v-4zm0-62h4v-4h-4v4zm0-10v4h4v-4h-4zm0-26V2h-4v4h4zm11 0h4V2h-4v4zm0 26h-4v4h4v-4zm16 0h4v-4h-4v4zm0 10v4h4v-4h-4zm-16 0v-4h-4v4h4zm0 62v4h4v-4h-4zM166 10l15 3 3-7c-6-2-12-4-18-4v8zm15 3c5 2 9 5 12 9l6-6c-4-4-9-8-15-10l-3 7zm12 9c8 8 13 19 13 32h8c0-15-5-28-15-38l-6 6zm13 32c0 13-5 24-13 32l6 6c10-10 15-23 15-38h-8zm-13 32c-3 4-7 7-12 9l3 7c6-2 11-6 15-10l-6-6zm-12 9l-15 3v8c6 0 12-2 18-4l-3-7zm-15 3h-40v8h40v-8zm-36 4V6h-8v96h8zm-4-92h40V2h-40v8zm40 85c11 0 20-4 27-12l-6-5c-6 6-13 9-21 9v8zm27-12c7-8 10-18 10-29h-8c0 10-3 17-8 24l6 5zm10-29c0-11-3-21-10-29l-6 5c5 7 8 14 8 24h8zm-10-29c-7-8-16-12-27-12v8c8 0 15 3 21 9l6-5zm-27-12h-29v8h29v-8zm-33 4v74h8V17h-8zm4 78h29v-8h-29v8zm140-7c-5 7-12 11-22 11v8c12 0 22-5 29-15l-7-4zm-22 11c-9 0-17-3-22-10l-6 6c7 8 17 12 28 12v-8zm-22-10c-6-6-9-14-9-23h-8c0 11 4 21 11 29l6-6zm-9-23c0-10 3-18 9-24l-6-5c-7 8-11 17-11 29h8zm9-24c5-6 13-9 23-9v-8c-12 0-22 4-29 12l6 5zm23-9c9 0 16 3 21 11l7-5c-7-10-16-14-28-14v8zm29 8V30h-8v11h8zm-4-7h10v-8h-10v8zm6-4v72h8V30h-8zm4 68h-10v8h10v-8zm-6 4V90h-8v12h8zm-29-5c9 0 16-3 22-10l-6-5c-4 5-9 7-16 7v8zm22-10c5-5 7-13 7-21h-8c0 7-2 12-5 16l6 5zm7-21c0-9-2-16-7-22l-6 5c3 4 5 10 5 17h8zm-7-22c-6-7-13-10-22-10v8c7 0 12 3 16 7l6-5zm-22-10c-8 0-16 3-21 10l6 5c4-4 9-7 15-7v-8zm-21 10c-6 6-8 13-8 22h8c0-7 2-13 6-17l-6-5zm-8 22c0 8 2 16 8 22l6-6c-4-4-6-9-6-16h-8zm8 22c5 6 13 9 21 9v-8c-6 0-11-2-15-7l-6 6zm87 14V39h-8v63h8zm-4-67h-15v8h15v-8zm-11 4v-9h-8v9h8zm-4-5h15v-8h-15v8zm19-4V4h-8v26h8zm-4-22h10V0h-10v8zm6-4v26h8V4h-8zm4 30h17v-8h-17v8zm13-4v9h8v-9h-8zm4 5h-17v8h17v-8zm-21 4v63h8V39h-8zm4 59h-10v8h10v-8zm80-10c-5 7-12 11-23 11v8c13 0 23-5 29-15l-6-4zm-23 11c-9 0-16-3-22-10l-6 6c8 8 17 12 28 12v-8zm-22-10c-5-6-8-14-8-23h-8c0 11 3 21 10 29l6-6zm-8-23c0-10 3-18 8-24l-6-5c-7 8-10 17-10 29h8zm8-24c6-6 13-9 23-9v-8c-12 0-21 4-29 12l6 5zm23-9c10 0 17 3 22 11l6-5c-6-10-16-14-28-14v8zm29 8V30h-8v11h8zm-4-7h11v-8h-11v8zm7-4v72h8V30h-8zm4 68h-11v8h11v-8zm-7 4V90h-8v12h8zm-28-5c9 0 16-3 21-10l-6-5c-3 5-8 7-15 7v8zm21-10c5-5 8-13 8-21h-8c0 7-2 12-6 16l6 5zm8-21c0-9-3-16-8-22l-6 5c4 4 6 10 6 17h8zm-8-22c-5-7-12-10-21-10v8c7 0 12 3 15 7l6-5zm-21-10c-9 0-16 3-22 10l6 5c4-4 9-7 16-7v-8zm-22 10c-5 6-7 13-7 22h8c0-7 2-13 5-17l-6-5zm-7 22c0 8 2 16 7 22l6-6c-3-4-5-9-5-16h-8zm7 22c6 6 13 9 22 9v-8c-7 0-12-2-16-7l-6 6zm122-40c-1-4-3-8-8-11-3-2-9-3-14-3v8l10 2 4 5 8-1zm-22-14c-6 0-11 1-15 3s-6 6-6 11h8l2-4c2-1 5-2 11-2v-8zm-21 14c0 4 2 8 5 10l5-7c-1 0-2-1-2-3h-8zm5 10l10 4 2-8c-3 0-5-2-7-3l-5 7zm10 4l12 3 2-8-12-3-2 8zm12 3l11 3 3-7-12-4-2 8zm11 3l7 5 6-5c-3-3-6-6-10-7l-3 7zm7 5c2 2 3 4 3 8h8c0-5-2-10-5-13l-6 5zm3 8c0 6-2 10-6 13l4 7c7-5 10-12 10-20h-8zm-6 13c-5 3-11 5-19 5v8c9 0 17-2 23-6l-4-7zm-19 5c-9 0-16-3-21-7l-5 7c7 5 15 8 26 8v-8zm-21-7c-4-3-6-8-7-13h-8c1 8 4 15 10 20l5-7zm-11-9h12v-8h-12v8zm8-4c0 4 1 8 4 11 2 3 6 5 10 6l2-7-6-4-2-6h-8zm14 17l8 2v-8l-6-1-2 7zm8 2l8-1-2-8-6 1v8zm8-1l7-2-3-7-6 1 2 8zm7-2l7-5 2-8h-8l-1 3-3 3 3 7zm9-13c0-4-2-8-5-10l-5 7c1 1 2 1 2 3h8zm-5-10l-10-4-2 7 7 4 5-7zm-10-4l-12-3-2 8 12 2 2-7zm-12-3l-11-3-3 7 12 4 2-8zm-11-3l-7-5-6 5 10 7 3-7zm-7-5c-2-2-3-4-3-8h-8c0 5 2 10 5 13l6-5zm-3-8c0-5 2-9 6-12l-5-6c-6 4-9 11-9 18h8zm6-12c4-3 10-4 18-4v-8c-9 0-17 1-23 6l5 6zm18-4c9 0 14 2 19 5l5-6c-6-5-14-7-24-7v8zm19 5c3 3 5 7 6 11h7c0-7-3-13-8-17l-5 6zm9 7h-10v8h10v-8zm49 52c5 0 10-1 14-4 4-2 7-6 10-10l-7-4c-2 3-4 6-7 7-3 2-6 3-10 3v8zm20-12h12v-8h-12v8zm8-6c-2 6-5 11-10 14l5 7c6-5 10-11 13-18l-8-3zm-10 14c-5 4-11 6-19 6v8c10 0 17-2 24-7l-5-7zm-19 6c-9 0-17-4-23-10l-6 6c8 8 18 12 29 12v-8zm-23-10c-6-6-9-14-9-23h-8c0 11 4 21 11 29l6-6zm-9-23c0-10 3-18 9-24l-6-5c-7 7-11 17-11 29h8zm9-24c5-6 13-9 23-9v-8c-12 0-22 4-29 12l6 5zm23-9c9 0 17 3 23 9l6-5c-8-8-18-12-29-12v8zm23 9c5 6 8 14 8 24h8c0-12-3-22-10-29l-6 5zm8 24v4h8v-4h-8zm4 0h-60v8h60v-8zm-64 4c1 8 4 14 9 19l6-6c-4-3-6-8-7-14l-8 1zm9 19c6 5 13 8 21 8v-8c-7 0-11-2-15-6l-6 6zm20-55c-8 0-14 3-20 8l6 5c3-3 8-5 14-5v-8zm-20 8c-5 4-8 10-9 17l8 1c1-5 3-9 7-13l-6-5zm-5 22h49v-8h-49v8zm53-5c-1-7-4-13-9-17l-5 5c3 4 5 8 6 13l8-1zm-9-17c-5-5-12-8-19-8v8c5 0 10 2 14 5l5-5zm148 55c6 0 11-1 15-4 4-2 7-6 10-10l-7-4-7 7c-3 2-6 3-11 3v8zm21-12h12v-8h-12v8zm8-6c-2 6-6 11-10 14l4 7c6-5 11-11 14-18l-8-3zm-10 14c-5 4-11 6-19 6v8c9 0 17-2 23-7l-4-7zm-19 6c-10 0-17-4-23-10l-6 6c8 8 17 12 29 12v-8zm-23-10c-6-6-9-14-9-23h-8c0 11 4 21 11 29l6-6zm-9-23c0-10 3-18 8-24l-6-5c-7 7-10 17-10 29h8zm8-24c6-6 14-9 23-9v-8c-11 0-21 4-29 12l6 5zm23-9c10 0 18 3 24 9l5-5c-7-8-17-12-29-12v8zm24 9c5 6 8 14 8 24h8c0-12-3-22-11-29l-5 5zm8 24v4h8v-4h-8zm4 0h-60v8h60v-8zm-64 4c1 8 4 14 9 19l6-6c-4-3-6-8-7-14l-8 1zm9 19c5 5 12 8 20 8v-8c-6 0-11-2-14-6l-6 6zm19-55c-7 0-14 3-19 8l6 5c3-3 8-5 13-5v-8zm-19 8c-5 4-8 10-9 17l8 1c1-5 3-9 7-13l-6-5zm-5 22h49v-8h-49v8zm53-5c-1-7-4-13-9-17l-6 5c4 4 6 8 7 13l8-1zm-9-17c-6-5-12-8-20-8v8c6 0 11 2 14 5l6-5zm-122 62V42h-8v62h8zm-4-66h-15v8h15v-8zm-11 4V32h-8v10h8zm-4-6h15v-8h-15v8zm19-4V6h-8v26h8zm-4-22h10V2h-10v8zm6-4v26h8V6h-8zm4 30h11v-8h-11v8zm11 2h-11v8h11v-8zm-15 4v62h8V42h-8zm4 58h-10v8h10v-8zm29 4V42h-8v62h8zm-4-66h-14v8h14v-8zm-14-2h14v-8h-14v8zm18-4V6h-8v26h8zm-4-22h11V2h-11v8zm7-4v26h8V6h-8zm4 30h16v-8h-16v8zm12-4v10h8V32h-8zm4 6h-16v8h16v-8zm-20 4v62h8V42h-8zm4 58h-11v8h11v-8z" fill="#0E0C82" mask="url(#a)"/><path d="M2 19h100" stroke="#0E0C82" stroke-width="4" stroke-linecap="round" stroke-linejoin="round"/><path d="M19 104V21M35 102V19M52 102V19M69 104V21M85 104V21" stroke="#0E0C82" stroke-opacity=".3" stroke-width="4" stroke-linecap="round" stroke-linejoin="round"/><path d="M100 54H2M100 88H2M100 71H2M102 37H4M102 19H4M91 4H13C7 4 2 9 2 15v78c0 6 5 11 11 11h78c6 0 11-5 11-11V15c0-6-5-11-11-11z" stroke="#0E0C82" stroke-width="4" stroke-linecap="round" stroke-linejoin="round"/><path d="M102 19H2C3 8 5 4 16 4h71c12 0 15 4 15 15z" fill="#0E0C82" fill-opacity=".3"/></svg>
